<svg width="126" height="19" viewBox="0 0 126 19" fill="none" xmlns="http://www.w3.org/2000/svg">
<g id="Group 42">
<rect id="Rectangle 26" x="17.0497" y="16.1211" width="8.16547" height="1.11716" transform="rotate(-61.6832 17.0497 16.1211)" fill="#12B76A"/>
<g id="GrowthStore.xyz">
<path d="M6.2684 14.9811C5.44007 14.9811 4.67008 14.8061 3.95842 14.4561C3.24675 14.0944 2.62842 13.6103 2.10343 13.0036C1.57843 12.3969 1.1701 11.7203 0.878433 10.9736C0.598434 10.2269 0.458435 9.45694 0.458435 8.66362C0.458435 7.82362 0.598434 7.03029 0.878433 6.28363C1.1701 5.5253 1.5726 4.85447 2.08593 4.27114C2.59926 3.68781 3.20592 3.22698 3.90592 2.88865C4.60591 2.55032 5.37007 2.38115 6.1984 2.38115C7.4234 2.38115 8.42089 2.63198 9.19089 3.13365C9.96088 3.63531 10.5442 4.28864 10.9409 5.09364L9.99588 5.72363C9.59922 4.95364 9.06839 4.38781 8.40339 4.02614C7.73839 3.66448 6.99756 3.48364 6.1809 3.48364C5.49257 3.48364 4.86841 3.62948 4.30841 3.92114C3.76008 4.21281 3.28759 4.60364 2.89092 5.09364C2.49426 5.58363 2.19093 6.1378 1.98093 6.75613C1.78259 7.37446 1.68343 8.01612 1.68343 8.68111C1.68343 9.38111 1.80009 10.0461 2.03343 10.6761C2.26676 11.2944 2.59926 11.8486 3.03092 12.3386C3.46258 12.8169 3.95842 13.1961 4.51841 13.4761C5.09008 13.7444 5.70257 13.8786 6.3559 13.8786C7.11423 13.8786 7.83173 13.6919 8.50839 13.3186C9.18505 12.9336 9.83255 12.3444 10.4509 11.5511V12.8461C9.27255 14.2694 7.87839 14.9811 6.2684 14.9811ZM10.2584 9.73111H7.4934V8.78611H11.2909V14.8936H10.2584V9.73111Z" fill="#293056"/>
<path d="M17.7627 6.82613C16.9694 6.84946 16.2694 7.07112 15.6627 7.49112C15.0677 7.91112 14.6477 8.48862 14.4027 9.22361V14.8936H13.2127V5.77613H14.3327V7.96362C14.6477 7.32196 15.0619 6.80279 15.5752 6.40613C16.1002 6.00946 16.6544 5.7878 17.2377 5.74113C17.3544 5.72946 17.4535 5.72363 17.5352 5.72363C17.6285 5.72363 17.7044 5.72946 17.7627 5.74113V6.82613Z" fill="#293056"/>
<path d="M22.5924 15.0686C21.9391 15.0686 21.3324 14.9461 20.7724 14.7011C20.2241 14.4444 19.7457 14.1003 19.3374 13.6686C18.9407 13.2253 18.6316 12.7236 18.4099 12.1636C18.1882 11.5919 18.0774 10.9911 18.0774 10.3611C18.0774 9.70778 18.1882 9.10111 18.4099 8.54112C18.6316 7.96945 18.9466 7.46779 19.3549 7.03612C19.7632 6.59279 20.2416 6.24863 20.7899 6.00363C21.3499 5.74696 21.9566 5.61863 22.6099 5.61863C23.2632 5.61863 23.8641 5.74696 24.4124 6.00363C24.9607 6.24863 25.439 6.59279 25.8474 7.03612C26.2557 7.46779 26.5707 7.96945 26.7924 8.54112C27.014 9.10111 27.1249 9.70778 27.1249 10.3611C27.1249 10.9911 27.014 11.5919 26.7924 12.1636C26.5707 12.7236 26.2557 13.2253 25.8474 13.6686C25.4507 14.1003 24.9724 14.4444 24.4124 14.7011C23.8641 14.9461 23.2574 15.0686 22.5924 15.0686ZM19.2849 10.3786C19.2849 11.0553 19.4307 11.6736 19.7224 12.2336C20.0257 12.7819 20.4282 13.2194 20.9299 13.5461C21.4316 13.8611 21.9857 14.0186 22.5924 14.0186C23.1991 14.0186 23.7532 13.8553 24.2549 13.5286C24.7565 13.2019 25.159 12.7586 25.4624 12.1986C25.7657 11.6269 25.9174 11.0086 25.9174 10.3436C25.9174 9.66694 25.7657 9.04861 25.4624 8.48862C25.159 7.92862 24.7565 7.48529 24.2549 7.15862C23.7532 6.83196 23.1991 6.66863 22.5924 6.66863C21.9857 6.66863 21.4316 6.83779 20.9299 7.17612C20.4399 7.51445 20.0432 7.96362 19.7399 8.52362C19.4366 9.07195 19.2849 9.69028 19.2849 10.3786Z" fill="#293056"/>
<path d="M39.9374 5.77613H41.1099L37.1899 14.8936H36.1574L34.2499 10.3611L32.3599 14.8936H31.3274L27.4075 5.77613H28.5625L31.8874 13.6686L33.5674 9.55611L32.0274 5.79363H33.0949L34.2499 8.75111L35.4224 5.79363H36.4724L34.9499 9.55611L36.6299 13.6686L39.9374 5.77613Z" fill="#293056"/>
<path d="M46.7182 14.4561C46.6249 14.4911 46.479 14.5552 46.2807 14.6486C46.0824 14.7419 45.8432 14.8236 45.5632 14.8936C45.2832 14.9636 44.9799 14.9986 44.6532 14.9986C44.3149 14.9986 43.994 14.9344 43.6907 14.8061C43.399 14.6777 43.1657 14.4852 42.9907 14.2286C42.8157 13.9603 42.7282 13.6336 42.7282 13.2486V6.72113H41.4682V5.77613H42.7282V2.69615H43.9182V5.77613H46.0182V6.72113H43.9182V12.9161C43.9415 13.2428 44.0582 13.4878 44.2682 13.6511C44.4899 13.8144 44.7407 13.8961 45.0207 13.8961C45.3474 13.8961 45.6449 13.8436 45.9132 13.7386C46.1815 13.6219 46.3449 13.5403 46.4032 13.4936L46.7182 14.4561Z" fill="#293056"/>
<path d="M55.52 14.8936H54.33V9.80111C54.33 8.77445 54.1491 8.00445 53.7875 7.49112C53.4258 6.96612 52.9066 6.70363 52.23 6.70363C51.7866 6.70363 51.3433 6.82029 50.9 7.05362C50.4683 7.27529 50.0833 7.58445 49.745 7.98112C49.4183 8.36612 49.185 8.80945 49.045 9.31111V14.8936H47.855V2.11865H49.045V7.84112C49.4067 7.16446 49.9083 6.62779 50.55 6.23113C51.2033 5.8228 51.8975 5.61863 52.6325 5.61863C53.1575 5.61863 53.6008 5.71197 53.9625 5.89863C54.3358 6.0853 54.6333 6.35946 54.855 6.72113C55.0883 7.07112 55.2575 7.48529 55.3625 7.96362C55.4675 8.43028 55.52 8.96111 55.52 9.55611V14.8936Z" fill="#293056"/>
<path d="M65.215 4.79614C65.04 4.5978 64.8359 4.42281 64.6025 4.27114C64.3692 4.10781 64.1067 3.96781 63.815 3.85114C63.5234 3.73448 63.2084 3.64114 62.8701 3.57114C62.5434 3.50114 62.1934 3.46614 61.8201 3.46614C60.7351 3.46614 59.9359 3.67614 59.4226 4.09614C58.9209 4.50447 58.6701 5.06447 58.6701 5.77613C58.6701 6.26613 58.7867 6.65113 59.0201 6.93113C59.2651 7.21112 59.6442 7.43862 60.1576 7.61362C60.6709 7.78862 61.3242 7.96945 62.1176 8.15612C63.0042 8.34278 63.7684 8.56445 64.41 8.82111C65.0517 9.07778 65.5475 9.42778 65.8975 9.87111C66.2475 10.3028 66.4225 10.8919 66.4225 11.6386C66.4225 12.2103 66.3117 12.7061 66.09 13.1261C65.8684 13.5461 65.5592 13.8961 65.1625 14.1761C64.7659 14.4561 64.2934 14.6661 63.745 14.8061C63.1967 14.9344 62.5959 14.9986 61.9426 14.9986C61.3009 14.9986 60.6826 14.9344 60.0876 14.8061C59.5042 14.6661 58.9501 14.4677 58.4251 14.2111C57.9001 13.9428 57.4101 13.6044 56.9551 13.1961L57.5676 12.1986C57.7892 12.4319 58.0517 12.6536 58.3551 12.8636C58.6701 13.0619 59.0142 13.2428 59.3876 13.4061C59.7726 13.5694 60.1809 13.6978 60.6126 13.7911C61.0559 13.8728 61.5109 13.9136 61.9776 13.9136C62.9692 13.9136 63.7392 13.7328 64.2875 13.3711C64.8475 13.0094 65.1275 12.4728 65.1275 11.7611C65.1275 11.2478 64.9875 10.8394 64.7075 10.5361C64.4275 10.2211 64.0075 9.96444 63.4475 9.76611C62.8875 9.56778 62.1992 9.37528 61.3826 9.18861C60.5192 8.99028 59.7901 8.76861 59.1951 8.52362C58.6001 8.27862 58.1509 7.95779 57.8476 7.56112C57.5559 7.15279 57.4101 6.61613 57.4101 5.95113C57.4101 5.18113 57.5967 4.53364 57.9701 4.00864C58.3551 3.47198 58.8801 3.06948 59.5451 2.80115C60.2101 2.52115 60.9742 2.38115 61.8376 2.38115C62.3859 2.38115 62.8934 2.43948 63.36 2.55615C63.8384 2.66115 64.2759 2.81865 64.6725 3.02865C65.0809 3.23865 65.46 3.50114 65.81 3.81614L65.215 4.79614Z" fill="#293056"/>
<path d="M72.2086 14.4561C72.1152 14.4911 71.9694 14.5552 71.7711 14.6486C71.5727 14.7419 71.3336 14.8236 71.0536 14.8936C70.7736 14.9636 70.4703 14.9986 70.1436 14.9986C69.8053 14.9986 69.4844 14.9344 69.1811 14.8061C68.8894 14.6777 68.6561 14.4852 68.4811 14.2286C68.3061 13.9603 68.2186 13.6336 68.2186 13.2486V6.72113H66.9586V5.77613H68.2186V2.69615H69.4086V5.77613H71.5086V6.72113H69.4086V12.9161C69.4319 13.2428 69.5486 13.4878 69.7586 13.6511C69.9803 13.8144 70.2311 13.8961 70.5111 13.8961C70.8377 13.8961 71.1352 13.8436 71.4036 13.7386C71.6719 13.6219 71.8352 13.5403 71.8936 13.4936L72.2086 14.4561Z" fill="#293056"/>
<path d="M77.0766 15.0686C76.4232 15.0686 75.8166 14.9461 75.2566 14.7011C74.7082 14.4444 74.2299 14.1003 73.8216 13.6686C73.4249 13.2253 73.1157 12.7236 72.8941 12.1636C72.6724 11.5919 72.5616 10.9911 72.5616 10.3611C72.5616 9.70778 72.6724 9.10111 72.8941 8.54112C73.1157 7.96945 73.4307 7.46779 73.8391 7.03612C74.2474 6.59279 74.7257 6.24863 75.2741 6.00363C75.8341 5.74696 76.4407 5.61863 77.0941 5.61863C77.7474 5.61863 78.3482 5.74696 78.8965 6.00363C79.4449 6.24863 79.9232 6.59279 80.3315 7.03612C80.7399 7.46779 81.0549 7.96945 81.2765 8.54112C81.4982 9.10111 81.609 9.70778 81.609 10.3611C81.609 10.9911 81.4982 11.5919 81.2765 12.1636C81.0549 12.7236 80.7399 13.2253 80.3315 13.6686C79.9349 14.1003 79.4565 14.4444 78.8965 14.7011C78.3482 14.9461 77.7416 15.0686 77.0766 15.0686ZM73.7691 10.3786C73.7691 11.0553 73.9149 11.6736 74.2066 12.2336C74.5099 12.7819 74.9124 13.2194 75.4141 13.5461C75.9157 13.8611 76.4699 14.0186 77.0766 14.0186C77.6832 14.0186 78.2374 13.8553 78.739 13.5286C79.2407 13.2019 79.6432 12.7586 79.9465 12.1986C80.2499 11.6269 80.4015 11.0086 80.4015 10.3436C80.4015 9.66694 80.2499 9.04861 79.9465 8.48862C79.6432 7.92862 79.2407 7.48529 78.739 7.15862C78.2374 6.83196 77.6832 6.66863 77.0766 6.66863C76.4699 6.66863 75.9157 6.83779 75.4141 7.17612C74.9241 7.51445 74.5274 7.96362 74.2241 8.52362C73.9207 9.07195 73.7691 9.69028 73.7691 10.3786Z" fill="#293056"/>
<path d="M87.7992 6.82613C87.0059 6.84946 86.3059 7.07112 85.6992 7.49112C85.1042 7.91112 84.6842 8.48862 84.4392 9.22361V14.8936H83.2492V5.77613H84.3692V7.96362C84.6842 7.32196 85.0984 6.80279 85.6117 6.40613C86.1367 6.00946 86.6909 5.7878 87.2742 5.74113C87.3909 5.72946 87.49 5.72363 87.5717 5.72363C87.665 5.72363 87.7409 5.72946 87.7992 5.74113V6.82613Z" fill="#293056"/>
<path d="M92.6814 15.0686C92.0281 15.0686 91.4214 14.9461 90.8614 14.7011C90.3014 14.4444 89.8173 14.1003 89.4089 13.6686C89.0006 13.2253 88.6798 12.7178 88.4464 12.1461C88.2248 11.5744 88.1139 10.9619 88.1139 10.3086C88.1139 9.45694 88.3064 8.67528 88.6914 7.96362C89.0881 7.25196 89.6306 6.68613 90.3189 6.26613C91.0072 5.83446 91.7889 5.61863 92.6639 5.61863C93.5622 5.61863 94.3439 5.83446 95.0089 6.26613C95.6856 6.69779 96.2164 7.26946 96.6014 7.98112C96.9864 8.68112 97.1789 9.45111 97.1789 10.2911C97.1789 10.3844 97.1789 10.4778 97.1789 10.5711C97.1789 10.6528 97.173 10.7169 97.1614 10.7636H89.3564C89.4148 11.4169 89.5956 12.0003 89.8989 12.5136C90.2139 13.0153 90.6164 13.4178 91.1064 13.7211C91.6081 14.0128 92.1506 14.1586 92.7339 14.1586C93.3289 14.1586 93.8889 14.0069 94.4139 13.7036C94.9506 13.4003 95.3239 13.0036 95.5339 12.5136L96.5664 12.7936C96.3797 13.2253 96.0939 13.6161 95.7089 13.9661C95.3239 14.3161 94.8689 14.5902 94.3439 14.7886C93.8306 14.9752 93.2764 15.0686 92.6814 15.0686ZM89.3214 9.90611H96.0589C96.0122 9.24111 95.8314 8.65778 95.5164 8.15612C95.2131 7.65445 94.8106 7.26362 94.3089 6.98362C93.8189 6.69196 93.2764 6.54613 92.6814 6.54613C92.0864 6.54613 91.5439 6.69196 91.0539 6.98362C90.5639 7.26362 90.1614 7.66029 89.8464 8.17362C89.5431 8.67528 89.3681 9.25278 89.3214 9.90611Z" fill="#293056"/>
<path d="M98.4899 14.8936V13.1786H99.5224V14.8936H98.4899Z" fill="#293056"/>
<path d="M101.35 5.79363L104.448 9.74861L104.588 9.97611L104.728 9.74861L107.825 5.79363H108.543L104.955 10.3786L108.508 14.8936H107.808L104.728 10.9736L104.588 10.7636L104.448 10.9736L101.385 14.8936H100.668L104.22 10.3786L100.65 5.79363H101.35Z" fill="#BC1B06"/>
<path d="M110.63 18.2186C110.817 18.2302 110.986 18.2302 111.138 18.2186C111.289 18.2069 111.394 18.1661 111.453 18.0961C111.523 18.0494 111.604 17.9444 111.698 17.7811C111.803 17.6294 111.948 17.3261 112.135 16.8711C112.333 16.4277 112.619 15.7686 112.993 14.8936L108.845 5.79363H109.493L113.308 14.2286L116.895 5.79363H117.508L112.31 17.9736C112.252 18.1136 112.176 18.2361 112.083 18.3411C111.989 18.4577 111.884 18.5452 111.768 18.6036C111.663 18.6736 111.523 18.7144 111.348 18.7261C111.243 18.7494 111.132 18.7669 111.015 18.7786C110.898 18.7902 110.77 18.7902 110.63 18.7786V18.2186Z" fill="#12B76A"/>
<path d="M118.139 14.4036L124.842 6.30113H118.244V5.79363H125.542V6.28363L118.874 14.3861H125.489V14.8936H118.139V14.4036Z" fill="#155EEF"/>
</g>
<rect id="Rectangle 27" x="20.9384" y="8.93262" width="2.4577" height="1.11716" transform="rotate(28.3168 20.9384 8.93262)" fill="#12B76A"/>
<path id="Union" fill-rule="evenodd" clip-rule="evenodd" d="M25.2415 1.37027L28.5291 0.500064L28.5292 0.500201L28.5293 0.500171L29.3995 3.78784L28.1666 4.11416L27.8144 2.78356L23.1678 11.4073L22.1843 10.8774L26.8214 2.27133L25.5678 2.60315L25.2415 1.37027Z" fill="#12B76A"/>
</g>
</svg>
