<svg width="20" height="21" viewBox="0 0 20 21" fill="none" xmlns="http://www.w3.org/2000/svg">
<g id="linkedin">
<rect id="bg" x="1.25" y="1.7085" width="17.5" height="17.5" rx="8.75" fill="#1275B1"/>
<g id="linked_in">
<path d="M7.8866 6.51609C7.8866 7.10018 7.38032 7.57368 6.7558 7.57368C6.13128 7.57368 5.625 7.10018 5.625 6.51609C5.625 5.932 6.13128 5.4585 6.7558 5.4585C7.38032 5.4585 7.8866 5.932 7.8866 6.51609Z" fill="white"/>
<path d="M5.77964 8.35106H7.71263V14.2085H5.77964V8.35106Z" fill="white"/>
<path d="M10.8247 8.35106H8.89175V14.2085H10.8247C10.8247 14.2085 10.8247 12.3645 10.8247 11.2115C10.8247 10.5195 11.061 9.82446 12.0039 9.82446C13.0694 9.82446 13.063 10.7301 13.058 11.4317C13.0515 12.3488 13.067 13.2847 13.067 14.2085H15V11.1171C14.9836 9.14311 14.4693 8.23355 12.7771 8.23355C11.7721 8.23355 11.1492 8.68978 10.8247 9.10255V8.35106Z" fill="white"/>
</g>
</g>
</svg>
