<svg width="21" height="21" viewBox="0 0 21 21" fill="none" xmlns="http://www.w3.org/2000/svg">
<g id="stars-02">
<path id="Icon" d="M4.25008 18.7919V14.6252M4.25008 6.29191V2.12524M2.16675 4.20858H6.33341M2.16675 16.7086H6.33341M11.3334 2.95858L9.88827 6.71596C9.65326 7.32699 9.53575 7.6325 9.35302 7.88948C9.19107 8.11724 8.99208 8.31624 8.76432 8.47819C8.50734 8.66091 8.20182 8.77842 7.5908 9.01343L3.83342 10.4586L7.5908 11.9037C8.20183 12.1387 8.50734 12.2562 8.76432 12.439C8.99208 12.6009 9.19107 12.7999 9.35302 13.0277C9.53575 13.2847 9.65326 13.5902 9.88827 14.2012L11.3334 17.9586L12.7786 14.2012C13.0136 13.5902 13.1311 13.2847 13.3138 13.0277C13.4758 12.7999 13.6748 12.6009 13.9025 12.439C14.1595 12.2562 14.465 12.1387 15.076 11.9037L18.8334 10.4586L15.076 9.01343C14.465 8.77842 14.1595 8.66091 13.9025 8.47819C13.6748 8.31624 13.4758 8.11724 13.3138 7.88948C13.1311 7.6325 13.0136 7.32699 12.7786 6.71596L11.3334 2.95858Z" stroke="white" stroke-width="1.66667" stroke-linecap="round" stroke-linejoin="round"/>
</g>
</svg>
