<svg width="20" height="21" viewBox="0 0 20 21" fill="none" xmlns="http://www.w3.org/2000/svg">
<g id="twitter">
<path id="twitter_2" d="M7.36796 17.9585C5.34609 17.9585 3.46136 17.3704 1.875 16.3558C3.22187 16.4429 5.59879 16.2342 7.07724 14.824C4.85317 14.7219 3.85016 13.0162 3.71934 12.2872C3.90831 12.3601 4.80956 12.4476 5.31834 12.2435C2.75994 11.602 2.36745 9.35682 2.45467 8.67161C2.93437 9.00692 3.74841 9.12356 4.06821 9.0944C1.68425 7.38864 2.54189 4.82272 2.96345 4.26871C4.67426 6.63891 7.23825 7.9701 10.4102 8.04415C10.3504 7.78184 10.3188 7.50876 10.3188 7.22827C10.3188 5.21532 11.9459 3.5835 13.9529 3.5835C15.0016 3.5835 15.9465 4.02897 16.6098 4.74152C17.3106 4.57731 18.3652 4.19291 18.8808 3.8605C18.6209 4.79356 17.8118 5.57193 17.3224 5.86042C17.3185 5.85056 17.3265 5.87023 17.3224 5.86042C17.7523 5.79539 18.9155 5.57185 19.375 5.26009C19.1478 5.78428 18.29 6.65583 17.5861 7.14376C17.717 12.9198 13.2978 17.9585 7.36796 17.9585Z" fill="white"/>
</g>
</svg>
